<?xml version="1.0" encoding="UTF-8" standalone="no"?><!DOCTYPE svg PUBLIC "-//W3C//DTD SVG 1.1//EN" "http://www.w3.org/Graphics/SVG/1.1/DTD/svg11.dtd"><svg width="100%" height="100%" viewBox="0 0 111 19" version="1.1" xmlns="http://www.w3.org/2000/svg" xmlns:xlink="http://www.w3.org/1999/xlink" xml:space="preserve" xmlns:serif="http://www.serif.com/" style="fill-rule:evenodd;clip-rule:evenodd;stroke-linejoin:round;stroke-miterlimit:1.41421;"><path d="M25.809,4.787c0,-2.406 -1.954,-4.36 -4.36,-4.36l-16.699,0c-2.406,0 -4.36,1.954 -4.36,4.36l0,8.719c0,2.407 1.954,4.36 4.36,4.36l16.699,0c2.406,0 4.36,-1.953 4.36,-4.36l0,-8.719Z" style="fill:#f5442e;"/><path d="M21.571,0.054c2.416,0.092 4.517,2.138 4.611,4.611c0.038,2.948 0.002,5.896 0.002,8.844c-0.031,2.466 -2.101,4.635 -4.613,4.731c-5.607,0.071 -11.215,0.001 -16.823,0.001c-2.467,-0.031 -4.635,-2.101 -4.731,-4.613c-0.037,-2.947 -0.002,-5.896 -0.002,-8.844c0.032,-2.466 2.101,-4.635 4.613,-4.73c5.647,-0.072 11.296,-0.072 16.943,0Zm-16.818,0.748c-2.085,0.027 -3.907,1.789 -3.986,3.882c-0.037,2.94 -0.002,5.88 -0.002,8.82c0.027,2.084 1.789,3.906 3.882,3.986c5.6,0.071 11.2,0.001 16.8,0.001c2.084,-0.026 3.906,-1.789 3.986,-3.882c0.037,-2.94 0.001,-5.88 0.001,-8.82c-0.026,-2.084 -1.789,-3.906 -3.882,-3.986c-5.599,-0.07 -11.2,-0.001 -16.799,-0.001Z" style="fill:none;"/><path d="M17.544,9.152l-6.815,3.458l0.005,-6.927l6.81,3.469Z" style="fill:#fff;"/><path d="M10.752,5.309c0.043,0.004 0.082,0.012 0.124,0.027c2.326,1.063 4.559,2.321 6.838,3.482c0.244,0.137 0.262,0.493 0.027,0.653c-2.23,1.253 -4.561,2.316 -6.842,3.473c-0.233,0.106 -0.511,-0.044 -0.544,-0.303c-0.096,-2.317 0.003,-4.638 0.004,-6.958c0.01,-0.208 0.165,-0.375 0.393,-0.374Zm0.353,6.69l5.611,-2.848l-5.607,-2.856c-0.001,1.901 -0.003,3.803 -0.004,5.704Z" style="fill:none;"/><g><path d="M28.66,1.137l6.823,0l0,1.815l-2.33,0l0,13.911l-2.061,0l0,-13.911l-2.432,0l0,-1.815Z" style="fill-rule:nonzero;stroke:#000;stroke-width:0.3px;"/><path d="M36.41,1.091l1.938,0l0,5.618l0.041,0c0.467,-1 1.168,-1.5 2.103,-1.5c0.398,0 0.738,0.08 1.02,0.239c0.282,0.159 0.491,0.348 0.629,0.568c0.137,0.219 0.244,0.522 0.319,0.908c0.076,0.387 0.12,0.712 0.134,0.977c0.014,0.265 0.021,0.625 0.021,1.079l0,7.883l-1.938,0l0,-7.928c0,-1.212 -0.385,-1.818 -1.154,-1.818c-0.275,0 -0.502,0.069 -0.68,0.205c-0.179,0.136 -0.299,0.352 -0.361,0.647c-0.062,0.296 -0.1,0.538 -0.114,0.727c-0.013,0.19 -0.02,0.458 -0.02,0.807l0,7.36l-1.938,0l0,-15.772Z" style="fill-rule:nonzero;stroke:#000;stroke-width:0.3px;"/><path d="M46.428,5.538l0,11.325l-1.937,0l0,-11.325l1.937,0Zm-0.948,-1.794c-0.357,0 -0.663,-0.123 -0.917,-0.369c-0.254,-0.246 -0.382,-0.542 -0.382,-0.887c0,-0.346 0.128,-0.638 0.382,-0.877c0.254,-0.24 0.56,-0.359 0.917,-0.359c0.344,0 0.643,0.123 0.897,0.369c0.254,0.245 0.381,0.535 0.381,0.867c0,0.345 -0.127,0.641 -0.381,0.887c-0.254,0.246 -0.553,0.369 -0.897,0.369Z" style="fill-rule:nonzero;stroke:#000;stroke-width:0.3px;"/><path d="M50.262,5.48l0,1.305l0.042,0c0.467,-0.99 1.168,-1.485 2.102,-1.485c0.399,0 0.735,0.079 1.01,0.236c0.275,0.158 0.485,0.345 0.629,0.563c0.144,0.217 0.254,0.513 0.33,0.888c0.075,0.375 0.12,0.702 0.134,0.979c0.013,0.278 0.02,0.634 0.02,1.069l0,7.807l-1.937,0l0,-7.852c0,-1.2 -0.385,-1.8 -1.155,-1.8c-0.275,0 -0.501,0.067 -0.68,0.202c-0.179,0.135 -0.299,0.349 -0.361,0.642c-0.061,0.292 -0.099,0.532 -0.113,0.72c-0.014,0.187 -0.021,0.453 -0.021,0.798l0,7.29l-1.937,0l0,-11.362l1.937,0Z" style="fill-rule:nonzero;stroke:#000;stroke-width:0.3px;"/><path d="M56.426,1.33l1.937,0l0,9.359l0.042,0l2.411,-4.921l2.165,0l-2.659,4.921l3.009,6.174l-2.247,0l-2.679,-5.888l-0.042,0l0,5.888l-1.937,0l0,-15.533Z" style="fill-rule:nonzero;stroke:#000;stroke-width:0.3px;"/><path d="M63.9,5.501l1.094,0l-0.024,-1.505c0,-0.585 0.024,-1.065 0.07,-1.44c0.047,-0.375 0.151,-0.765 0.314,-1.17c0.163,-0.405 0.434,-0.708 0.814,-0.911c0.38,-0.202 0.865,-0.304 1.454,-0.304c0.465,0 0.954,0.105 1.466,0.315l0,2.205c0.151,0.08 -0.644,-0.27 -0.908,-0.27c-0.325,0 -0.569,0.098 -0.732,0.293c-0.163,0.195 -0.252,0.386 -0.268,0.574c-0.015,0.187 -0.023,0.453 -0.023,0.798c0,0.075 0.023,-0.828 0.023,-0.798l0,2.213l1.815,0l0,1.665l-1.815,0l0,9.697l-2.186,0l0,-9.697l-1.094,0l0,-1.665Z" style="fill-rule:nonzero;stroke:#000;stroke-width:0.3px;"/><path d="M69.907,5.48l1.938,0l0,7.841c0,0.053 0.003,0.173 0.01,0.36c0.007,0.188 0.024,0.311 0.051,0.371c0.028,0.06 0.059,0.165 0.093,0.315c0.034,0.15 0.083,0.252 0.144,0.304c0.062,0.053 0.134,0.12 0.217,0.203c0.082,0.082 0.182,0.138 0.299,0.168c0.117,0.03 0.244,0.045 0.381,0.045c0.138,0 0.265,-0.015 0.381,-0.045c0.117,-0.03 0.213,-0.078 0.289,-0.146c0.076,-0.067 0.144,-0.131 0.206,-0.191c0.062,-0.06 0.11,-0.154 0.144,-0.281c0.035,-0.128 0.062,-0.229 0.083,-0.304c0.021,-0.075 0.034,-0.191 0.041,-0.349c0.007,-0.157 0.01,-0.274 0.01,-0.349l0,-0.72l0,-7.222l1.938,0l0,7.672c0,1.26 -0.223,2.22 -0.67,2.88c-0.446,0.66 -1.226,0.99 -2.339,0.99c-1.306,0 -2.168,-0.352 -2.587,-1.057c-0.42,-0.705 -0.629,-1.793 -0.629,-3.263l0,-7.222Z" style="fill-rule:nonzero;stroke:#000;stroke-width:0.3px;"/><rect x="78.008" y="1.126" width="1.938" height="15.737" style="fill-rule:nonzero;stroke:#000;stroke-width:0.3px;"/><path d="M81.853,1.129l6.823,0l0,1.908l-2.33,0l0,13.826l-2.061,0l0,-13.826l-2.432,0l0,-1.908Z" style="fill-rule:nonzero;stroke:#000;stroke-width:0.3px;"/><path d="M88.779,5.48l1.937,0l0,7.841c0,0.053 0.004,0.173 0.011,0.36c0.006,0.188 0.024,0.311 0.051,0.371c0.028,0.06 0.059,0.165 0.093,0.315c0.034,0.15 0.082,0.252 0.144,0.304c0.062,0.053 0.134,0.12 0.217,0.203c0.082,0.082 0.182,0.138 0.299,0.168c0.116,0.03 0.243,0.045 0.381,0.045c0.137,0 0.264,-0.015 0.381,-0.045c0.117,-0.03 0.213,-0.078 0.289,-0.146c0.075,-0.067 0.144,-0.131 0.206,-0.191c0.062,-0.06 0.11,-0.154 0.144,-0.281c0.035,-0.128 0.062,-0.229 0.083,-0.304c0.02,-0.075 0.034,-0.191 0.041,-0.349c0.007,-0.157 0.01,-0.274 0.01,-0.349l0,-0.72l0,-7.222l1.938,0l0,7.672c0,1.26 -0.223,2.22 -0.67,2.88c-0.447,0.66 -1.227,0.99 -2.34,0.99c-1.305,0 -2.168,-0.352 -2.587,-1.057c-0.419,-0.705 -0.628,-1.793 -0.628,-3.263l0,-7.222Z" style="fill-rule:nonzero;stroke:#000;stroke-width:0.3px;"/><path d="M96.88,16.837l0,-15.888l1.937,0l0,5.505l0.042,0c0.219,-0.494 0.467,-0.864 0.742,-1.11c0.274,-0.247 0.646,-0.37 1.113,-0.37c0.467,0 0.869,0.15 1.206,0.451c0.336,0.3 0.587,0.643 0.752,1.029c0.165,0.385 0.292,0.886 0.381,1.503c0.09,0.617 0.141,1.118 0.155,1.503c0.014,0.385 0.021,0.848 0.021,1.388c0,0.447 -0.007,0.828 -0.021,1.144c-0.014,0.316 -0.041,0.744 -0.082,1.284c-0.042,0.539 -0.117,1.002 -0.227,1.387c-0.11,0.386 -0.248,0.771 -0.412,1.157c-0.165,0.385 -0.396,0.682 -0.691,0.89c-0.295,0.208 -0.636,0.312 -1.02,0.312c-0.509,0 -0.901,-0.139 -1.175,-0.416c-0.275,-0.278 -0.523,-0.702 -0.742,-1.272l-0.042,0l0,1.503l-1.937,0Zm3.092,-1.757c0.151,0 0.292,-0.035 0.422,-0.104c0.131,-0.07 0.237,-0.174 0.32,-0.313c0.082,-0.138 0.158,-0.281 0.227,-0.427c0.068,-0.147 0.12,-0.336 0.154,-0.567c0.034,-0.231 0.065,-0.428 0.093,-0.59c0.027,-0.162 0.045,-0.37 0.051,-0.624c0.007,-0.255 0.011,-0.443 0.011,-0.567l0,-1.804c0,-0.123 -0.004,-0.312 -0.011,-0.566c-0.006,-0.255 -0.024,-0.463 -0.051,-0.625c-0.028,-0.161 -0.059,-0.354 -0.093,-0.578c-0.034,-0.223 -0.086,-0.408 -0.154,-0.555c-0.069,-0.146 -0.145,-0.289 -0.227,-0.428c-0.083,-0.138 -0.189,-0.242 -0.32,-0.312c-0.13,-0.069 -0.271,-0.104 -0.422,-0.104c-0.825,0 -1.23,1.303 -1.217,3.908c0,0.078 0,0.132 0,0.162c0,1.928 0.186,3.161 0.557,3.701c0.179,0.262 0.399,0.393 0.66,0.393Z" style="fill-rule:nonzero;stroke:#000;stroke-width:0.3px;"/><path d="M110.794,11.577l-4.288,0c0,2.37 0.406,3.555 1.216,3.555c0.811,0 1.216,-0.705 1.216,-2.115l1.794,0c0,1.155 -0.248,2.112 -0.742,2.869c-0.495,0.757 -1.258,1.136 -2.288,1.136c-0.55,0 -1.031,-0.127 -1.443,-0.382c-0.413,-0.255 -0.725,-0.57 -0.938,-0.945c-0.213,-0.375 -0.382,-0.84 -0.505,-1.395c-0.124,-0.555 -0.203,-1.061 -0.237,-1.519c-0.035,-0.457 -0.052,-0.971 -0.052,-1.541c0,-0.465 0.011,-0.885 0.031,-1.26c0.021,-0.375 0.065,-0.806 0.134,-1.294c0.069,-0.487 0.175,-0.919 0.32,-1.294c0.144,-0.375 0.326,-0.727 0.546,-1.057c0.22,-0.33 0.508,-0.585 0.866,-0.765c0.357,-0.18 0.762,-0.27 1.216,-0.27c2.102,0 3.154,1.98 3.154,5.94l0,0.337Zm-4.288,-1.507l2.309,0c0,-1.92 -0.392,-2.88 -1.175,-2.88c-0.275,0 -0.495,0.086 -0.66,0.259c-0.165,0.172 -0.278,0.431 -0.34,0.776c-0.062,0.345 -0.1,0.622 -0.113,0.832c-0.014,0.21 -0.021,0.495 -0.021,0.855c0,0.075 0,0.128 0,0.158Z" style="fill-rule:nonzero;stroke:#000;stroke-width:0.3px;"/></g></svg>