<svg viewBox="0 0 111 19" xmlns="http://www.w3.org/2000/svg" fill-rule="evenodd" clip-rule="evenodd" stroke-linejoin="round" stroke-miterlimit="1.414"><path d="M25.809 4.787a4.363 4.363 0 0 0-4.36-4.36H4.75a4.363 4.363 0 0 0-4.36 4.36v8.719a4.362 4.362 0 0 0 4.36 4.36h16.699a4.362 4.362 0 0 0 4.36-4.36V4.787z" fill="#f5442e"/><path d="M21.571.054c2.416.092 4.517 2.138 4.611 4.611.038 2.948.002 5.896.002 8.844-.031 2.466-2.101 4.635-4.613 4.731-5.607.071-11.215.001-16.823.001C2.281 18.21.113 16.14.017 13.628-.02 10.681.015 7.732.015 4.784.047 2.318 2.116.149 4.628.054a664.53 664.53 0 0 1 16.943 0zM4.753.802C2.668.829.846 2.591.767 4.684c-.037 2.94-.002 5.88-.002 8.82.027 2.084 1.789 3.906 3.882 3.986 5.6.071 11.2.001 16.8.001 2.084-.026 3.906-1.789 3.986-3.882.037-2.94.001-5.88.001-8.82-.026-2.084-1.789-3.906-3.882-3.986-5.599-.07-11.2-.001-16.799-.001z" fill="none"/><path d="M17.544 9.152l-6.815 3.458.005-6.927 6.81 3.469z" fill="#fff"/><path d="M10.752 5.309a.492.492 0 0 1 .124.027c2.326 1.063 4.559 2.321 6.838 3.482a.387.387 0 0 1 .027.653c-2.23 1.253-4.561 2.316-6.842 3.473a.389.389 0 0 1-.544-.303c-.096-2.317.003-4.638.004-6.958a.382.382 0 0 1 .393-.374zm.353 6.69l5.611-2.848-5.607-2.856-.004 5.704z" fill="none"/><g fill-rule="nonzero" stroke="#000" stroke-width=".3"><path d="M28.66 1.137h6.823v1.815h-2.33v13.911h-2.061V2.952H28.66V1.137zM36.41 1.091h1.938v5.618h.041c.467-1 1.168-1.5 2.103-1.5.398 0 .738.08 1.02.239.282.159.491.348.629.568.137.219.244.522.319.908.076.387.12.712.134.977.014.265.021.625.021 1.079v7.883h-1.938V8.935c0-1.212-.385-1.818-1.154-1.818-.275 0-.502.069-.68.205-.179.136-.299.352-.361.647a5.78 5.78 0 0 0-.114.727c-.013.19-.02.458-.02.807v7.36H36.41V1.091zM46.428 5.538v11.325h-1.937V5.538h1.937zm-.948-1.794c-.357 0-.663-.123-.917-.369a1.192 1.192 0 0 1-.382-.887c0-.346.128-.638.382-.877.254-.24.56-.359.917-.359.344 0 .643.123.897.369.254.245.381.535.381.867 0 .345-.127.641-.381.887a1.247 1.247 0 0 1-.897.369zM50.262 5.48v1.305h.042c.467-.99 1.168-1.485 2.102-1.485.399 0 .735.079 1.01.236.275.158.485.345.629.563.144.217.254.513.33.888.075.375.12.702.134.979.013.278.02.634.02 1.069v7.807h-1.937V8.99c0-1.2-.385-1.8-1.155-1.8-.275 0-.501.067-.68.202-.179.135-.299.349-.361.642a5.773 5.773 0 0 0-.113.72 11.45 11.45 0 0 0-.021.798v7.29h-1.937V5.48h1.937zM56.426 1.33h1.937v9.359h.042l2.411-4.921h2.165l-2.659 4.921 3.009 6.174h-2.247l-2.679-5.888h-.042v5.888h-1.937V1.33zM63.9 5.501h1.094l-.024-1.505c0-.585.024-1.065.07-1.44.047-.375.151-.765.314-1.17.163-.405.434-.708.814-.911.38-.202.865-.304 1.454-.304.465 0 .954.105 1.466.315v2.205c.151.08-.644-.27-.908-.27-.325 0-.569.098-.732.293-.163.195-.252.386-.268.574-.015.187-.023.453-.023.798 0 .075.023-.828.023-.798v2.213h1.815v1.665H67.18v9.697h-2.186V7.166H63.9V5.501zM69.907 5.48h1.938v7.841c0 .053.003.173.01.36.007.188.024.311.051.371.028.06.059.165.093.315s.083.252.144.304c.062.053.134.12.217.203a.64.64 0 0 0 .299.168c.117.03.244.045.381.045.138 0 .265-.015.381-.045a.675.675 0 0 0 .289-.146 5.99 5.99 0 0 0 .206-.191.602.602 0 0 0 .144-.281l.083-.304c.021-.075.034-.191.041-.349a8.47 8.47 0 0 0 .01-.349V5.48h1.938v7.672c0 1.26-.223 2.22-.67 2.88-.446.66-1.226.99-2.339.99-1.306 0-2.168-.352-2.587-1.057-.42-.705-.629-1.793-.629-3.263V5.48zM78.008 1.126h1.938v15.737h-1.938zM81.853 1.129h6.823v1.908h-2.33v13.826h-2.061V3.037h-2.432V1.129zM88.779 5.48h1.937v7.841c0 .053.004.173.011.36.006.188.024.311.051.371.028.06.059.165.093.315s.082.252.144.304c.062.053.134.12.217.203a.64.64 0 0 0 .299.168c.116.03.243.045.381.045.137 0 .264-.015.381-.045a.675.675 0 0 0 .289-.146 7.09 7.09 0 0 0 .206-.191.602.602 0 0 0 .144-.281l.083-.304c.02-.075.034-.191.041-.349a8.47 8.47 0 0 0 .01-.349V5.48h1.938v7.672c0 1.26-.223 2.22-.67 2.88-.447.66-1.227.99-2.34.99-1.305 0-2.168-.352-2.587-1.057-.419-.705-.628-1.793-.628-3.263V5.48zM96.88 16.837V.949h1.937v5.505h.042c.219-.494.467-.864.742-1.11.274-.247.646-.37 1.113-.37.467 0 .869.15 1.206.451.336.3.587.643.752 1.029.165.385.292.886.381 1.503.09.617.141 1.118.155 1.503a39.03 39.03 0 0 1 0 2.532c-.014.316-.041.744-.082 1.284a7.135 7.135 0 0 1-.227 1.387c-.11.386-.248.771-.412 1.157-.165.385-.396.682-.691.89a1.728 1.728 0 0 1-1.02.312c-.509 0-.901-.139-1.175-.416-.275-.278-.523-.702-.742-1.272h-.042v1.503H96.88zm3.092-1.757a.888.888 0 0 0 .422-.104.82.82 0 0 0 .32-.313 5.12 5.12 0 0 0 .227-.427c.068-.147.12-.336.154-.567.034-.231.065-.428.093-.59.027-.162.045-.37.051-.624.007-.255.011-.443.011-.567v-1.804c0-.123-.004-.312-.011-.566a4.551 4.551 0 0 0-.051-.625 27.79 27.79 0 0 1-.093-.578 2.079 2.079 0 0 0-.154-.555 5.302 5.302 0 0 0-.227-.428.825.825 0 0 0-.32-.312.888.888 0 0 0-.422-.104c-.825 0-1.23 1.303-1.217 3.908v.162c0 1.928.186 3.161.557 3.701.179.262.399.393.66.393zM110.794 11.577h-4.288c0 2.37.406 3.555 1.216 3.555.811 0 1.216-.705 1.216-2.115h1.794c0 1.155-.248 2.112-.742 2.869-.495.757-1.258 1.136-2.288 1.136-.55 0-1.031-.127-1.443-.382a2.65 2.65 0 0 1-.938-.945c-.213-.375-.382-.84-.505-1.395a10.634 10.634 0 0 1-.237-1.519 20.376 20.376 0 0 1-.052-1.541c0-.465.011-.885.031-1.26.021-.375.065-.806.134-1.294.069-.487.175-.919.32-1.294.144-.375.326-.727.546-1.057.22-.33.508-.585.866-.765.357-.18.762-.27 1.216-.27 2.102 0 3.154 1.98 3.154 5.94v.337zm-4.288-1.507h2.309c0-1.92-.392-2.88-1.175-2.88-.275 0-.495.086-.66.259-.165.172-.278.431-.34.776-.062.345-.1.622-.113.832-.014.21-.021.495-.021.855v.158z"/></g></svg>